<svg width="554" height="143" viewBox="0 0 554 143" fill="none" xmlns="http://www.w3.org/2000/svg">
<path d="M8.886 116H4.134V115.1H5.97V104.336H4.134V103.436H8.886V104.336H7.05V115.1H8.886V116ZM12.4257 102.5C13.0197 102.5 13.2897 102.842 13.2897 103.328V103.562C13.2897 104.552 12.6777 105.83 11.7417 106.64H10.8777C11.6697 105.83 12.0657 105.074 12.2097 104.282C11.7597 104.228 11.5617 103.922 11.5617 103.544V103.328C11.5617 102.842 11.8317 102.5 12.4257 102.5ZM16.7039 116H15.6779V106.784H16.7039V108.242H16.7579C17.1359 107.342 17.8559 106.568 19.3679 106.568C20.6819 106.568 21.7619 107.18 22.2119 108.512H22.2659C22.6079 107.432 23.5259 106.568 25.1639 106.568C27.1259 106.568 28.2239 107.828 28.2239 110.078V116H27.1979V110.258C27.1979 108.404 26.4239 107.486 24.8759 107.486C23.5979 107.486 22.4639 108.17 22.4639 109.538V116H21.4379V110.258C21.4379 108.386 20.6459 107.486 19.1339 107.486C17.8739 107.486 16.7039 108.152 16.7039 109.52V116ZM43.0794 116H42.0354C41.2434 116 40.9194 115.55 40.8654 114.866V114.542H40.7754C40.3614 115.568 39.4254 116.216 37.9854 116.216C36.0594 116.216 34.9434 115.208 34.9434 113.498C34.9434 111.86 36.0234 110.834 38.6874 110.834H40.8114V109.754C40.8114 108.242 40.0194 107.468 38.4534 107.468C37.2294 107.468 36.4374 108.008 35.9334 108.962L35.2854 108.422C35.7894 107.36 36.8154 106.568 38.4894 106.568C40.6314 106.568 41.8374 107.702 41.8374 109.646V115.1H43.0794V116ZM38.1294 115.334C39.6234 115.334 40.8114 114.56 40.8114 113.318V111.608H38.6514C36.8154 111.608 36.0234 112.238 36.0234 113.264V113.696C36.0234 114.758 36.8694 115.334 38.1294 115.334ZM49.4455 103.436H50.5255V111.194C50.5255 113.984 51.3175 115.244 53.7835 115.244C56.2315 115.244 57.0415 113.984 57.0415 111.194V103.436H58.1215V110.96C58.1215 114.65 56.9695 116.216 53.7475 116.216C50.5255 116.216 49.4455 114.65 49.4455 110.96V103.436ZM64.0789 116.216C62.4769 116.216 61.3609 115.586 60.5329 114.452L61.2889 113.858C62.0449 114.848 62.9269 115.334 64.1509 115.334C65.5549 115.334 66.3649 114.704 66.3649 113.588C66.3649 112.616 65.8069 112.058 64.4749 111.86L63.7189 111.734C62.0449 111.482 60.8929 110.816 60.8929 109.16C60.8929 107.432 62.2429 106.568 64.0249 106.568C65.5549 106.568 66.4909 107.162 67.1749 107.99L66.4909 108.62C66.0049 108.044 65.2489 107.45 63.9709 107.45C62.6569 107.45 61.8829 108.062 61.8829 109.106C61.8829 110.168 62.5489 110.582 63.8629 110.798L64.6009 110.906C66.4729 111.194 67.3549 112.004 67.3549 113.48C67.3549 115.19 66.1129 116.216 64.0789 116.216ZM73.341 116.216C70.875 116.216 69.309 114.416 69.309 111.392C69.309 108.368 70.875 106.568 73.323 106.568C75.681 106.568 77.211 108.404 77.211 111.104V111.59H70.389V112.04C70.389 113.966 71.505 115.316 73.395 115.316C74.709 115.316 75.681 114.668 76.185 113.462L76.941 113.966C76.365 115.316 75.087 116.216 73.341 116.216ZM73.323 107.432C71.541 107.432 70.389 108.764 70.389 110.708V110.798H76.095V110.654C76.095 108.71 74.979 107.432 73.323 107.432ZM80.8465 116H79.8205V106.784H80.8465V108.44H80.9185C81.2785 107.576 82.0885 106.784 83.6725 106.784H84.2845V107.792H83.4745C81.9445 107.792 80.8465 108.512 80.8465 109.7V116ZM97.96 116H90.616V103.436H97.96V104.39H91.696V109.142H97.654V110.096H91.696V115.046H97.96V116ZM99.6379 116L103.058 111.356L99.7639 106.784H100.97L103.598 110.546H103.652L106.334 106.784H107.486L104.21 111.284L107.576 116H106.37L103.652 112.112H103.616L100.79 116H99.6379ZM109.721 119.6V106.784H110.747V108.26H110.801C111.251 107.234 112.205 106.568 113.609 106.568C115.967 106.568 117.407 108.35 117.407 111.392C117.407 114.434 115.967 116.216 113.609 116.216C112.205 116.216 111.305 115.55 110.801 114.524H110.747V119.6H109.721ZM113.375 115.298C115.211 115.298 116.309 114.02 116.309 112.04V110.744C116.309 108.764 115.211 107.486 113.375 107.486C111.953 107.486 110.747 108.332 110.747 109.538V113.192C110.747 114.488 111.953 115.298 113.375 115.298ZM123.351 116.216C120.885 116.216 119.319 114.416 119.319 111.392C119.319 108.368 120.885 106.568 123.333 106.568C125.691 106.568 127.221 108.404 127.221 111.104V111.59H120.399V112.04C120.399 113.966 121.515 115.316 123.405 115.316C124.719 115.316 125.691 114.668 126.195 113.462L126.951 113.966C126.375 115.316 125.097 116.216 123.351 116.216ZM123.333 107.432C121.551 107.432 120.399 108.764 120.399 110.708V110.798H126.105V110.654C126.105 108.71 124.989 107.432 123.333 107.432ZM130.856 116H129.83V106.784H130.856V108.44H130.928C131.288 107.576 132.098 106.784 133.682 106.784H134.294V107.792H133.484C131.954 107.792 130.856 108.512 130.856 109.7V116ZM136.768 104.282C136.282 104.282 136.066 104.012 136.066 103.634V103.454C136.066 103.076 136.282 102.806 136.768 102.806C137.254 102.806 137.47 103.076 137.47 103.454V103.634C137.47 104.012 137.254 104.282 136.768 104.282ZM136.264 116V106.784H137.29V116H136.264ZM143.935 116.216C141.469 116.216 139.903 114.416 139.903 111.392C139.903 108.368 141.469 106.568 143.917 106.568C146.275 106.568 147.805 108.404 147.805 111.104V111.59H140.983V112.04C140.983 113.966 142.099 115.316 143.989 115.316C145.303 115.316 146.275 114.668 146.779 113.462L147.535 113.966C146.959 115.316 145.681 116.216 143.935 116.216ZM143.917 107.432C142.135 107.432 140.983 108.764 140.983 110.708V110.798H146.689V110.654C146.689 108.71 145.573 107.432 143.917 107.432ZM151.44 116H150.414V106.784H151.44V108.242H151.494C151.908 107.288 152.736 106.568 154.212 106.568C156.174 106.568 157.326 107.828 157.326 110.078V116H156.3V110.258C156.3 108.386 155.472 107.486 153.942 107.486C152.646 107.486 151.44 108.152 151.44 109.52V116ZM163.797 116.216C161.277 116.216 159.819 114.434 159.819 111.392C159.819 108.35 161.277 106.568 163.797 106.568C165.489 106.568 166.533 107.396 167.073 108.602L166.209 109.034C165.777 108.044 165.003 107.486 163.797 107.486C161.925 107.486 160.917 108.8 160.917 110.744V112.04C160.917 113.984 161.925 115.298 163.797 115.298C165.057 115.298 165.921 114.722 166.443 113.696L167.199 114.2C166.605 115.424 165.489 116.216 163.797 116.216ZM172.64 116.216C170.174 116.216 168.608 114.416 168.608 111.392C168.608 108.368 170.174 106.568 172.622 106.568C174.98 106.568 176.51 108.404 176.51 111.104V111.59H169.688V112.04C169.688 113.966 170.804 115.316 172.694 115.316C174.008 115.316 174.98 114.668 175.484 113.462L176.24 113.966C175.664 115.316 174.386 116.216 172.64 116.216ZM172.622 107.432C170.84 107.432 169.688 108.764 169.688 110.708V110.798H175.394V110.654C175.394 108.71 174.278 107.432 172.622 107.432ZM192.481 116H191.347L189.979 112.094H184.633L183.265 116H182.185L186.631 103.436H188.017L192.481 116ZM189.691 111.158L187.333 104.462H187.261L184.903 111.158H189.691ZM195.649 116H194.623V106.784H195.649V108.44H195.721C196.081 107.576 196.891 106.784 198.475 106.784H199.087V107.792H198.277C196.747 107.792 195.649 108.512 195.649 109.7V116ZM204.244 116.216C201.724 116.216 200.266 114.434 200.266 111.392C200.266 108.35 201.724 106.568 204.244 106.568C205.936 106.568 206.98 107.396 207.52 108.602L206.656 109.034C206.224 108.044 205.45 107.486 204.244 107.486C202.372 107.486 201.364 108.8 201.364 110.744V112.04C201.364 113.984 202.372 115.298 204.244 115.298C205.504 115.298 206.368 114.722 206.89 113.696L207.646 114.2C207.052 115.424 205.936 116.216 204.244 116.216ZM209.934 116V102.68H210.96V108.242H211.014C211.428 107.288 212.256 106.568 213.732 106.568C215.694 106.568 216.846 107.828 216.846 110.078V116H215.82V110.258C215.82 108.386 214.992 107.486 213.462 107.486C212.166 107.486 210.96 108.152 210.96 109.52V116H209.934ZM220.58 104.282C220.094 104.282 219.878 104.012 219.878 103.634V103.454C219.878 103.076 220.094 102.806 220.58 102.806C221.066 102.806 221.282 103.076 221.282 103.454V103.634C221.282 104.012 221.066 104.282 220.58 104.282ZM220.076 116V106.784H221.102V116H220.076ZM227.873 116H226.037C225.299 116 224.903 115.55 224.903 114.866V107.684H223.301V106.784H224.345C224.849 106.784 224.993 106.604 224.993 106.082V104.21H225.929V106.784H228.017V107.684H225.929V115.1H227.873V116ZM233.706 116.216C231.24 116.216 229.674 114.416 229.674 111.392C229.674 108.368 231.24 106.568 233.688 106.568C236.046 106.568 237.576 108.404 237.576 111.104V111.59H230.754V112.04C230.754 113.966 231.87 115.316 233.76 115.316C235.074 115.316 236.046 114.668 236.55 113.462L237.306 113.966C236.73 115.316 235.452 116.216 233.706 116.216ZM233.688 107.432C231.906 107.432 230.754 108.764 230.754 110.708V110.798H236.46V110.654C236.46 108.71 235.344 107.432 233.688 107.432ZM243.426 116.216C240.906 116.216 239.448 114.434 239.448 111.392C239.448 108.35 240.906 106.568 243.426 106.568C245.118 106.568 246.162 107.396 246.702 108.602L245.838 109.034C245.406 108.044 244.632 107.486 243.426 107.486C241.554 107.486 240.546 108.8 240.546 110.744V112.04C240.546 113.984 241.554 115.298 243.426 115.298C244.686 115.298 245.55 114.722 246.072 113.696L246.828 114.2C246.234 115.424 245.118 116.216 243.426 116.216ZM252.535 116H250.699C249.961 116 249.565 115.55 249.565 114.866V107.684H247.963V106.784H249.007C249.511 106.784 249.655 106.604 249.655 106.082V104.21H250.591V106.784H252.679V107.684H250.591V115.1H252.535V116ZM255.881 114.344C256.475 114.344 256.745 114.686 256.745 115.172V115.406C256.745 116.396 256.133 117.674 255.197 118.484H254.333C255.125 117.674 255.521 116.918 255.665 116.126C255.197 116.072 255.017 115.766 255.017 115.388V115.172C255.017 114.686 255.287 114.344 255.881 114.344ZM265.657 116L263.065 106.784H264.073L266.287 115.082H266.323L268.771 106.784H269.725L272.191 115.082H272.227L274.423 106.784H275.413L272.821 116H271.561L269.239 108.242H269.203L266.899 116H265.657ZM278.184 104.282C277.698 104.282 277.482 104.012 277.482 103.634V103.454C277.482 103.076 277.698 102.806 278.184 102.806C278.67 102.806 278.886 103.076 278.886 103.454V103.634C278.886 104.012 278.67 104.282 278.184 104.282ZM277.68 116V106.784H278.706V116H277.68ZM285.477 116H283.641C282.903 116 282.507 115.55 282.507 114.866V107.684H280.905V106.784H281.949C282.453 106.784 282.597 106.604 282.597 106.082V104.21H283.533V106.784H285.621V107.684H283.533V115.1H285.477V116ZM288.086 116V102.68H289.112V108.242H289.166C289.58 107.288 290.408 106.568 291.884 106.568C293.846 106.568 294.998 107.828 294.998 110.078V116H293.972V110.258C293.972 108.386 293.144 107.486 291.614 107.486C290.318 107.486 289.112 108.152 289.112 109.52V116H288.086ZM305.759 116.216C303.329 116.216 301.745 114.416 301.745 111.392C301.745 108.368 303.329 106.568 305.759 106.568C308.189 106.568 309.773 108.368 309.773 111.392C309.773 114.416 308.189 116.216 305.759 116.216ZM305.759 115.298C307.541 115.298 308.675 114.128 308.675 111.968V110.816C308.675 108.674 307.541 107.486 305.759 107.486C303.977 107.486 302.843 108.656 302.843 110.816V111.968C302.843 114.11 303.977 115.298 305.759 115.298ZM314.29 116L310.96 106.784H312.04L314.866 114.902H314.938L317.746 106.784H318.79L315.46 116H314.29ZM323.988 116.216C321.522 116.216 319.956 114.416 319.956 111.392C319.956 108.368 321.522 106.568 323.97 106.568C326.328 106.568 327.858 108.404 327.858 111.104V111.59H321.036V112.04C321.036 113.966 322.152 115.316 324.042 115.316C325.356 115.316 326.328 114.668 326.832 113.462L327.588 113.966C327.012 115.316 325.734 116.216 323.988 116.216ZM323.97 107.432C322.188 107.432 321.036 108.764 321.036 110.708V110.798H326.742V110.654C326.742 108.71 325.626 107.432 323.97 107.432ZM331.493 116H330.467V106.784H331.493V108.44H331.565C331.925 107.576 332.735 106.784 334.319 106.784H334.931V107.792H334.121C332.591 107.792 331.493 108.512 331.493 109.7V116ZM342.81 108.944H344.304C346.032 108.944 347.058 107.99 347.058 106.64V106.406C347.058 105.002 346.014 104.192 344.556 104.192C343.098 104.192 342.27 104.822 341.748 105.83L340.938 105.254C341.514 104.174 342.63 103.22 344.574 103.22C346.662 103.22 348.21 104.39 348.21 106.37C348.21 108.062 347.148 109.016 345.762 109.34V109.412C347.238 109.664 348.462 110.708 348.462 112.598C348.462 114.776 346.86 116.216 344.412 116.216C342.396 116.216 341.226 115.334 340.434 114.164L341.244 113.552C341.946 114.632 342.828 115.244 344.394 115.244C346.212 115.244 347.31 114.272 347.31 112.706V112.418C347.31 110.852 346.248 109.88 344.394 109.88H342.81V108.944ZM359.111 103.436V104.39H353.495L353.099 109.646L353.207 109.664C353.837 108.782 354.611 108.332 355.943 108.332C358.157 108.332 359.633 109.772 359.633 112.166C359.633 114.596 358.103 116.216 355.601 116.216C353.639 116.216 352.487 115.334 351.713 114.164L352.523 113.552C353.225 114.632 354.035 115.244 355.601 115.244C357.455 115.244 358.499 114.146 358.499 112.4V112.094C358.499 110.348 357.491 109.25 355.655 109.25C354.341 109.25 353.711 109.7 353.099 110.402L352.163 110.258L352.613 103.436H359.111ZM369.694 114.902L372.502 106.784H373.546L369.28 118.592C368.992 119.366 368.686 119.6 367.75 119.6H366.706V118.7H368.254L369.136 116.27L365.716 106.784H366.796L369.622 114.902H369.694ZM378.779 116.216C376.313 116.216 374.747 114.416 374.747 111.392C374.747 108.368 376.313 106.568 378.761 106.568C381.119 106.568 382.649 108.404 382.649 111.104V111.59H375.827V112.04C375.827 113.966 376.943 115.316 378.833 115.316C380.147 115.316 381.119 114.668 381.623 113.462L382.379 113.966C381.803 115.316 380.525 116.216 378.779 116.216ZM378.761 107.432C376.979 107.432 375.827 108.764 375.827 110.708V110.798H381.533V110.654C381.533 108.71 380.417 107.432 378.761 107.432ZM392.638 116H391.594C390.802 116 390.478 115.55 390.424 114.866V114.542H390.334C389.92 115.568 388.984 116.216 387.544 116.216C385.618 116.216 384.502 115.208 384.502 113.498C384.502 111.86 385.582 110.834 388.246 110.834H390.37V109.754C390.37 108.242 389.578 107.468 388.012 107.468C386.788 107.468 385.996 108.008 385.492 108.962L384.844 108.422C385.348 107.36 386.374 106.568 388.048 106.568C390.19 106.568 391.396 107.702 391.396 109.646V115.1H392.638V116ZM387.688 115.334C389.182 115.334 390.37 114.56 390.37 113.318V111.608H388.21C386.374 111.608 385.582 112.238 385.582 113.264V113.696C385.582 114.758 386.428 115.334 387.688 115.334ZM395.776 116H394.75V106.784H395.776V108.44H395.848C396.208 107.576 397.018 106.784 398.602 106.784H399.214V107.792H398.404C396.874 107.792 395.776 108.512 395.776 109.7V116ZM403.794 116.216C402.192 116.216 401.076 115.586 400.248 114.452L401.004 113.858C401.76 114.848 402.642 115.334 403.866 115.334C405.27 115.334 406.08 114.704 406.08 113.588C406.08 112.616 405.522 112.058 404.19 111.86L403.434 111.734C401.76 111.482 400.608 110.816 400.608 109.16C400.608 107.432 401.958 106.568 403.74 106.568C405.27 106.568 406.206 107.162 406.89 107.99L406.206 108.62C405.72 108.044 404.964 107.45 403.686 107.45C402.372 107.45 401.598 108.062 401.598 109.106C401.598 110.168 402.264 110.582 403.578 110.798L404.316 110.906C406.188 111.194 407.07 112.004 407.07 113.48C407.07 115.19 405.828 116.216 403.794 116.216ZM417.31 116.216C414.844 116.216 413.278 114.416 413.278 111.392C413.278 108.368 414.844 106.568 417.292 106.568C419.65 106.568 421.18 108.404 421.18 111.104V111.59H414.358V112.04C414.358 113.966 415.474 115.316 417.364 115.316C418.678 115.316 419.65 114.668 420.154 113.462L420.91 113.966C420.334 115.316 419.056 116.216 417.31 116.216ZM417.292 107.432C415.51 107.432 414.358 108.764 414.358 110.708V110.798H420.064V110.654C420.064 108.71 418.948 107.432 417.292 107.432ZM422.39 116L425.81 111.356L422.516 106.784H423.722L426.35 110.546H426.404L429.086 106.784H430.238L426.962 111.284L430.328 116H429.122L426.404 112.112H426.368L423.542 116H422.39ZM432.473 119.6V106.784H433.499V108.26H433.553C434.003 107.234 434.957 106.568 436.361 106.568C438.719 106.568 440.159 108.35 440.159 111.392C440.159 114.434 438.719 116.216 436.361 116.216C434.957 116.216 434.057 115.55 433.553 114.524H433.499V119.6H432.473ZM436.127 115.298C437.963 115.298 439.061 114.02 439.061 112.04V110.744C439.061 108.764 437.963 107.486 436.127 107.486C434.705 107.486 433.499 108.332 433.499 109.538V113.192C433.499 114.488 434.705 115.298 436.127 115.298ZM446.103 116.216C443.637 116.216 442.071 114.416 442.071 111.392C442.071 108.368 443.637 106.568 446.085 106.568C448.443 106.568 449.973 108.404 449.973 111.104V111.59H443.151V112.04C443.151 113.966 444.267 115.316 446.157 115.316C447.471 115.316 448.443 114.668 448.947 113.462L449.703 113.966C449.127 115.316 447.849 116.216 446.103 116.216ZM446.085 107.432C444.303 107.432 443.151 108.764 443.151 110.708V110.798H448.857V110.654C448.857 108.71 447.741 107.432 446.085 107.432ZM453.608 116H452.582V106.784H453.608V108.44H453.68C454.04 107.576 454.85 106.784 456.434 106.784H457.046V107.792H456.236C454.706 107.792 453.608 108.512 453.608 109.7V116ZM459.52 104.282C459.034 104.282 458.818 104.012 458.818 103.634V103.454C458.818 103.076 459.034 102.806 459.52 102.806C460.006 102.806 460.222 103.076 460.222 103.454V103.634C460.222 104.012 460.006 104.282 459.52 104.282ZM459.016 116V106.784H460.042V116H459.016ZM466.687 116.216C464.221 116.216 462.655 114.416 462.655 111.392C462.655 108.368 464.221 106.568 466.669 106.568C469.027 106.568 470.557 108.404 470.557 111.104V111.59H463.735V112.04C463.735 113.966 464.851 115.316 466.741 115.316C468.055 115.316 469.027 114.668 469.531 113.462L470.287 113.966C469.711 115.316 468.433 116.216 466.687 116.216ZM466.669 107.432C464.887 107.432 463.735 108.764 463.735 110.708V110.798H469.441V110.654C469.441 108.71 468.325 107.432 466.669 107.432ZM474.192 116H473.166V106.784H474.192V108.242H474.246C474.66 107.288 475.488 106.568 476.964 106.568C478.926 106.568 480.078 107.828 480.078 110.078V116H479.052V110.258C479.052 108.386 478.224 107.486 476.694 107.486C475.398 107.486 474.192 108.152 474.192 109.52V116ZM486.549 116.216C484.029 116.216 482.571 114.434 482.571 111.392C482.571 108.35 484.029 106.568 486.549 106.568C488.241 106.568 489.285 107.396 489.825 108.602L488.961 109.034C488.529 108.044 487.755 107.486 486.549 107.486C484.677 107.486 483.669 108.8 483.669 110.744V112.04C483.669 113.984 484.677 115.298 486.549 115.298C487.809 115.298 488.673 114.722 489.195 113.696L489.951 114.2C489.357 115.424 488.241 116.216 486.549 116.216ZM495.392 116.216C492.926 116.216 491.36 114.416 491.36 111.392C491.36 108.368 492.926 106.568 495.374 106.568C497.732 106.568 499.262 108.404 499.262 111.104V111.59H492.44V112.04C492.44 113.966 493.556 115.316 495.446 115.316C496.76 115.316 497.732 114.668 498.236 113.462L498.992 113.966C498.416 115.316 497.138 116.216 495.392 116.216ZM495.374 107.432C493.592 107.432 492.44 108.764 492.44 110.708V110.798H498.146V110.654C498.146 108.71 497.03 107.432 495.374 107.432Z" fill="white"/>
<path d="M7.122 139H5.808C5.07 139 4.674 138.55 4.674 137.884V125.68H5.7V138.1H7.122V139ZM12.7141 139.216C10.2481 139.216 8.68209 137.416 8.68209 134.392C8.68209 131.368 10.2481 129.568 12.6961 129.568C15.0541 129.568 16.5841 131.404 16.5841 134.104V134.59H9.76209V135.04C9.76209 136.966 10.8781 138.316 12.7681 138.316C14.0821 138.316 15.0541 137.668 15.5581 136.462L16.3141 136.966C15.7381 138.316 14.4601 139.216 12.7141 139.216ZM12.6961 130.432C10.9141 130.432 9.76209 131.764 9.76209 133.708V133.798H15.4681V133.654C15.4681 131.71 14.3521 130.432 12.6961 130.432ZM26.5735 139H25.5295C24.7375 139 24.4135 138.55 24.3595 137.866V137.542H24.2695C23.8555 138.568 22.9195 139.216 21.4795 139.216C19.5535 139.216 18.4375 138.208 18.4375 136.498C18.4375 134.86 19.5175 133.834 22.1815 133.834H24.3055V132.754C24.3055 131.242 23.5135 130.468 21.9475 130.468C20.7235 130.468 19.9315 131.008 19.4275 131.962L18.7795 131.422C19.2835 130.36 20.3095 129.568 21.9835 129.568C24.1255 129.568 25.3315 130.702 25.3315 132.646V138.1H26.5735V139ZM21.6235 138.334C23.1175 138.334 24.3055 137.56 24.3055 136.318V134.608H22.1455C20.3095 134.608 19.5175 135.238 19.5175 136.264V136.696C19.5175 137.758 20.3635 138.334 21.6235 138.334ZM34.6437 139V137.524H34.5897C34.1037 138.55 33.1857 139.216 31.7817 139.216C29.4237 139.216 27.9837 137.434 27.9837 134.392C27.9837 131.35 29.4237 129.568 31.7817 129.568C33.1857 129.568 34.1397 130.234 34.5897 131.26H34.6437V125.68H35.6697V139H34.6437ZM32.0157 138.298C33.4377 138.298 34.6437 137.488 34.6437 136.192V132.538C34.6437 131.332 33.4377 130.486 32.0157 130.486C30.1797 130.486 29.0817 131.764 29.0817 133.744V135.04C29.0817 137.02 30.1797 138.298 32.0157 138.298ZM39.5257 127.282C39.0397 127.282 38.8237 127.012 38.8237 126.634V126.454C38.8237 126.076 39.0397 125.806 39.5257 125.806C40.0117 125.806 40.2277 126.076 40.2277 126.454V126.634C40.2277 127.012 40.0117 127.282 39.5257 127.282ZM39.0217 139V129.784H40.0477V139H39.0217ZM44.4246 139H43.3986V129.784H44.4246V131.242H44.4786C44.8926 130.288 45.7206 129.568 47.1966 129.568C49.1586 129.568 50.3106 130.828 50.3106 133.078V139H49.2846V133.258C49.2846 131.386 48.4566 130.486 46.9266 130.486C45.6306 130.486 44.4246 131.152 44.4246 132.52V139ZM61.1012 140.08C61.1012 141.952 59.5532 142.816 56.6732 142.816C53.8652 142.816 52.6952 141.952 52.6952 140.512C52.6952 139.468 53.2892 138.856 54.2792 138.568V138.424C53.7032 138.19 53.4152 137.776 53.4152 137.164C53.4152 136.264 54.0992 135.814 54.9812 135.58V135.508C53.9192 135.022 53.2712 134.032 53.2712 132.7C53.2712 130.846 54.5852 129.568 56.6192 129.568C57.3392 129.568 57.9692 129.73 58.4732 130.018V129.568C58.4732 129.01 58.7252 128.632 59.3192 128.632H60.9032V129.532H59.0312V130.414C59.6432 130.972 60.0032 131.764 60.0032 132.7C60.0032 134.572 58.6712 135.85 56.6372 135.85C56.3132 135.85 55.9892 135.796 55.6832 135.742C54.8912 135.958 54.3152 136.318 54.3152 136.93C54.3152 137.47 54.7832 137.758 55.7912 137.758H57.9332C60.1472 137.758 61.1012 138.64 61.1012 140.08ZM60.1112 140.152C60.1112 139.27 59.5712 138.712 57.9332 138.712H54.9452C54.1532 138.982 53.6672 139.504 53.6672 140.296C53.6672 141.25 54.4592 141.97 56.0612 141.97H57.2132C58.9952 141.97 60.1112 141.394 60.1112 140.152ZM56.6372 135.022C58.0412 135.022 58.9052 134.284 58.9052 132.988V132.412C58.9052 131.152 58.0412 130.396 56.6372 130.396C55.2152 130.396 54.3692 131.152 54.3692 132.412V132.988C54.3692 134.284 55.2332 135.022 56.6372 135.022ZM70.7424 139H68.9064C68.1684 139 67.7724 138.55 67.7724 137.866V130.684H66.1704V129.784H67.2144C67.7184 129.784 67.8624 129.604 67.8624 129.082V127.21H68.7984V129.784H70.8864V130.684H68.7984V138.1H70.7424V139ZM73.3517 139V125.68H74.3777V131.242H74.4317C74.8457 130.288 75.6737 129.568 77.1497 129.568C79.1117 129.568 80.2637 130.828 80.2637 133.078V139H79.2377V133.258C79.2377 131.386 78.4097 130.486 76.8797 130.486C75.5837 130.486 74.3777 131.152 74.3777 132.52V139H73.3517ZM86.7883 139.216C84.3223 139.216 82.7563 137.416 82.7563 134.392C82.7563 131.368 84.3223 129.568 86.7703 129.568C89.1283 129.568 90.6583 131.404 90.6583 134.104V134.59H83.8363V135.04C83.8363 136.966 84.9523 138.316 86.8423 138.316C88.1563 138.316 89.1283 137.668 89.6323 136.462L90.3883 136.966C89.8123 138.316 88.5343 139.216 86.7883 139.216ZM86.7703 130.432C84.9883 130.432 83.8363 131.764 83.8363 133.708V133.798H89.5423V133.654C89.5423 131.71 88.4263 130.432 86.7703 130.432ZM103.48 139V137.524H103.426C102.94 138.55 102.022 139.216 100.618 139.216C98.2597 139.216 96.8197 137.434 96.8197 134.392C96.8197 131.35 98.2597 129.568 100.618 129.568C102.022 129.568 102.976 130.234 103.426 131.26H103.48V125.68H104.506V139H103.48ZM100.852 138.298C102.274 138.298 103.48 137.488 103.48 136.192V132.538C103.48 131.332 102.274 130.486 100.852 130.486C99.0157 130.486 97.9177 131.764 97.9177 133.744V135.04C97.9177 137.02 99.0157 138.298 100.852 138.298ZM111.152 139.216C108.686 139.216 107.12 137.416 107.12 134.392C107.12 131.368 108.686 129.568 111.134 129.568C113.492 129.568 115.022 131.404 115.022 134.104V134.59H108.2V135.04C108.2 136.966 109.316 138.316 111.206 138.316C112.52 138.316 113.492 137.668 113.996 136.462L114.752 136.966C114.176 138.316 112.898 139.216 111.152 139.216ZM111.134 130.432C109.352 130.432 108.2 131.764 108.2 133.708V133.798H113.906V133.654C113.906 131.71 112.79 130.432 111.134 130.432ZM120.241 139.216C118.639 139.216 117.523 138.586 116.695 137.452L117.451 136.858C118.207 137.848 119.089 138.334 120.313 138.334C121.717 138.334 122.527 137.704 122.527 136.588C122.527 135.616 121.969 135.058 120.637 134.86L119.881 134.734C118.207 134.482 117.055 133.816 117.055 132.16C117.055 130.432 118.405 129.568 120.187 129.568C121.717 129.568 122.653 130.162 123.337 130.99L122.653 131.62C122.167 131.044 121.411 130.45 120.133 130.45C118.819 130.45 118.045 131.062 118.045 132.106C118.045 133.168 118.711 133.582 120.025 133.798L120.763 133.906C122.635 134.194 123.517 135.004 123.517 136.48C123.517 138.19 122.275 139.216 120.241 139.216ZM126.713 127.282C126.227 127.282 126.011 127.012 126.011 126.634V126.454C126.011 126.076 126.227 125.806 126.713 125.806C127.199 125.806 127.415 126.076 127.415 126.454V126.634C127.415 127.012 127.199 127.282 126.713 127.282ZM126.209 139V129.784H127.235V139H126.209ZM138.146 140.08C138.146 141.952 136.598 142.816 133.718 142.816C130.91 142.816 129.74 141.952 129.74 140.512C129.74 139.468 130.334 138.856 131.324 138.568V138.424C130.748 138.19 130.46 137.776 130.46 137.164C130.46 136.264 131.144 135.814 132.026 135.58V135.508C130.964 135.022 130.316 134.032 130.316 132.7C130.316 130.846 131.63 129.568 133.664 129.568C134.384 129.568 135.014 129.73 135.518 130.018V129.568C135.518 129.01 135.77 128.632 136.364 128.632H137.948V129.532H136.076V130.414C136.688 130.972 137.048 131.764 137.048 132.7C137.048 134.572 135.716 135.85 133.682 135.85C133.358 135.85 133.034 135.796 132.728 135.742C131.936 135.958 131.36 136.318 131.36 136.93C131.36 137.47 131.828 137.758 132.836 137.758H134.978C137.192 137.758 138.146 138.64 138.146 140.08ZM137.156 140.152C137.156 139.27 136.616 138.712 134.978 138.712H131.99C131.198 138.982 130.712 139.504 130.712 140.296C130.712 141.25 131.504 141.97 133.106 141.97H134.258C136.04 141.97 137.156 141.394 137.156 140.152ZM133.682 135.022C135.086 135.022 135.95 134.284 135.95 132.988V132.412C135.95 131.152 135.086 130.396 133.682 130.396C132.26 130.396 131.414 131.152 131.414 132.412V132.988C131.414 134.284 132.278 135.022 133.682 135.022ZM141.139 139H140.113V129.784H141.139V131.242H141.193C141.607 130.288 142.435 129.568 143.911 129.568C145.873 129.568 147.025 130.828 147.025 133.078V139H145.999V133.258C145.999 131.386 145.171 130.486 143.641 130.486C142.345 130.486 141.139 131.152 141.139 132.52V139ZM157.786 139.216C155.356 139.216 153.772 137.416 153.772 134.392C153.772 131.368 155.356 129.568 157.786 129.568C160.216 129.568 161.8 131.368 161.8 134.392C161.8 137.416 160.216 139.216 157.786 139.216ZM157.786 138.298C159.568 138.298 160.702 137.128 160.702 134.968V133.816C160.702 131.674 159.568 130.486 157.786 130.486C156.004 130.486 154.87 131.656 154.87 133.816V134.968C154.87 137.11 156.004 138.298 157.786 138.298ZM164.768 139V130.684H163.184V129.784H164.768V127.21C164.768 126.274 165.236 125.68 166.208 125.68H167.828V126.58H165.794V129.784H167.828V130.684H165.794V139H164.768ZM181.525 139H180.481C179.689 139 179.365 138.55 179.311 137.866V137.542H179.221C178.807 138.568 177.871 139.216 176.431 139.216C174.505 139.216 173.389 138.208 173.389 136.498C173.389 134.86 174.469 133.834 177.133 133.834H179.257V132.754C179.257 131.242 178.465 130.468 176.899 130.468C175.675 130.468 174.883 131.008 174.379 131.962L173.731 131.422C174.235 130.36 175.261 129.568 176.935 129.568C179.077 129.568 180.283 130.702 180.283 132.646V138.1H181.525V139ZM176.575 138.334C178.069 138.334 179.257 137.56 179.257 136.318V134.608H177.097C175.261 134.608 174.469 135.238 174.469 136.264V136.696C174.469 137.758 175.315 138.334 176.575 138.334ZM185.079 139L182.487 129.784H183.495L185.709 138.082H185.745L188.193 129.784H189.147L191.613 138.082H191.649L193.845 129.784H194.835L192.243 139H190.983L188.661 131.242H188.625L186.321 139H185.079ZM204.324 139H203.28C202.488 139 202.164 138.55 202.11 137.866V137.542H202.02C201.606 138.568 200.67 139.216 199.23 139.216C197.304 139.216 196.188 138.208 196.188 136.498C196.188 134.86 197.268 133.834 199.932 133.834H202.056V132.754C202.056 131.242 201.264 130.468 199.698 130.468C198.474 130.468 197.682 131.008 197.178 131.962L196.53 131.422C197.034 130.36 198.06 129.568 199.734 129.568C201.876 129.568 203.082 130.702 203.082 132.646V138.1H204.324V139ZM199.374 138.334C200.868 138.334 202.056 137.56 202.056 136.318V134.608H199.896C198.06 134.608 197.268 135.238 197.268 136.264V136.696C197.268 137.758 198.114 138.334 199.374 138.334ZM207.462 139H206.436V129.784H207.462V131.44H207.534C207.894 130.576 208.704 129.784 210.288 129.784H210.9V130.792H210.09C208.56 130.792 207.462 131.512 207.462 132.7V139ZM218.757 139V137.524H218.703C218.217 138.55 217.299 139.216 215.895 139.216C213.537 139.216 212.097 137.434 212.097 134.392C212.097 131.35 213.537 129.568 215.895 129.568C217.299 129.568 218.253 130.234 218.703 131.26H218.757V125.68H219.783V139H218.757ZM216.129 138.298C217.551 138.298 218.757 137.488 218.757 136.192V132.538C218.757 131.332 217.551 130.486 216.129 130.486C214.293 130.486 213.195 131.764 213.195 133.744V135.04C213.195 137.02 214.293 138.298 216.129 138.298ZM227.275 134.068H222.793V132.97H227.275V134.068ZM231.766 139L229.174 129.784H230.182L232.396 138.082H232.432L234.88 129.784H235.834L238.3 138.082H238.336L240.532 129.784H241.522L238.93 139H237.67L235.348 131.242H235.312L233.008 139H231.766ZM244.293 127.282C243.807 127.282 243.591 127.012 243.591 126.634V126.454C243.591 126.076 243.807 125.806 244.293 125.806C244.779 125.806 244.995 126.076 244.995 126.454V126.634C244.995 127.012 244.779 127.282 244.293 127.282ZM243.789 139V129.784H244.815V139H243.789ZM249.192 139H248.166V129.784H249.192V131.242H249.246C249.66 130.288 250.488 129.568 251.964 129.568C253.926 129.568 255.078 130.828 255.078 133.078V139H254.052V133.258C254.052 131.386 253.224 130.486 251.694 130.486C250.398 130.486 249.192 131.152 249.192 132.52V139ZM259.335 139H258.309V129.784H259.335V131.242H259.389C259.803 130.288 260.631 129.568 262.107 129.568C264.069 129.568 265.221 130.828 265.221 133.078V139H264.195V133.258C264.195 131.386 263.367 130.486 261.837 130.486C260.541 130.486 259.335 131.152 259.335 132.52V139ZM268.955 127.282C268.469 127.282 268.253 127.012 268.253 126.634V126.454C268.253 126.076 268.469 125.806 268.955 125.806C269.441 125.806 269.657 126.076 269.657 126.454V126.634C269.657 127.012 269.441 127.282 268.955 127.282ZM268.451 139V129.784H269.477V139H268.451ZM273.854 139H272.828V129.784H273.854V131.242H273.908C274.322 130.288 275.15 129.568 276.626 129.568C278.588 129.568 279.74 130.828 279.74 133.078V139H278.714V133.258C278.714 131.386 277.886 130.486 276.356 130.486C275.06 130.486 273.854 131.152 273.854 132.52V139ZM290.531 140.08C290.531 141.952 288.983 142.816 286.103 142.816C283.295 142.816 282.125 141.952 282.125 140.512C282.125 139.468 282.719 138.856 283.709 138.568V138.424C283.133 138.19 282.845 137.776 282.845 137.164C282.845 136.264 283.529 135.814 284.411 135.58V135.508C283.349 135.022 282.701 134.032 282.701 132.7C282.701 130.846 284.015 129.568 286.049 129.568C286.769 129.568 287.399 129.73 287.903 130.018V129.568C287.903 129.01 288.155 128.632 288.749 128.632H290.333V129.532H288.461V130.414C289.073 130.972 289.433 131.764 289.433 132.7C289.433 134.572 288.101 135.85 286.067 135.85C285.743 135.85 285.419 135.796 285.113 135.742C284.321 135.958 283.745 136.318 283.745 136.93C283.745 137.47 284.213 137.758 285.221 137.758H287.363C289.577 137.758 290.531 138.64 290.531 140.08ZM289.541 140.152C289.541 139.27 289.001 138.712 287.363 138.712H284.375C283.583 138.982 283.097 139.504 283.097 140.296C283.097 141.25 283.889 141.97 285.491 141.97H286.643C288.425 141.97 289.541 141.394 289.541 140.152ZM286.067 135.022C287.471 135.022 288.335 134.284 288.335 132.988V132.412C288.335 131.152 287.471 130.396 286.067 130.396C284.645 130.396 283.799 131.152 283.799 132.412V132.988C283.799 134.284 284.663 135.022 286.067 135.022ZM302.71 139V137.524H302.656C302.17 138.55 301.252 139.216 299.848 139.216C297.49 139.216 296.05 137.434 296.05 134.392C296.05 131.35 297.49 129.568 299.848 129.568C301.252 129.568 302.206 130.234 302.656 131.26H302.71V125.68H303.736V139H302.71ZM300.082 138.298C301.504 138.298 302.71 137.488 302.71 136.192V132.538C302.71 131.332 301.504 130.486 300.082 130.486C298.246 130.486 297.148 131.764 297.148 133.744V135.04C297.148 137.02 298.246 138.298 300.082 138.298ZM307.592 127.282C307.106 127.282 306.89 127.012 306.89 126.634V126.454C306.89 126.076 307.106 125.806 307.592 125.806C308.078 125.806 308.294 126.076 308.294 126.454V126.634C308.294 127.012 308.078 127.282 307.592 127.282ZM307.088 139V129.784H308.114V139H307.088ZM319.025 140.08C319.025 141.952 317.477 142.816 314.597 142.816C311.789 142.816 310.619 141.952 310.619 140.512C310.619 139.468 311.213 138.856 312.203 138.568V138.424C311.627 138.19 311.339 137.776 311.339 137.164C311.339 136.264 312.023 135.814 312.905 135.58V135.508C311.843 135.022 311.195 134.032 311.195 132.7C311.195 130.846 312.509 129.568 314.543 129.568C315.263 129.568 315.893 129.73 316.397 130.018V129.568C316.397 129.01 316.649 128.632 317.243 128.632H318.827V129.532H316.955V130.414C317.567 130.972 317.927 131.764 317.927 132.7C317.927 134.572 316.595 135.85 314.561 135.85C314.237 135.85 313.913 135.796 313.607 135.742C312.815 135.958 312.239 136.318 312.239 136.93C312.239 137.47 312.707 137.758 313.715 137.758H315.857C318.071 137.758 319.025 138.64 319.025 140.08ZM318.035 140.152C318.035 139.27 317.495 138.712 315.857 138.712H312.869C312.077 138.982 311.591 139.504 311.591 140.296C311.591 141.25 312.383 141.97 313.985 141.97H315.137C316.919 141.97 318.035 141.394 318.035 140.152ZM314.561 135.022C315.965 135.022 316.829 134.284 316.829 132.988V132.412C316.829 131.152 315.965 130.396 314.561 130.396C313.139 130.396 312.293 131.152 312.293 132.412V132.988C312.293 134.284 313.157 135.022 314.561 135.022ZM321.496 127.282C321.01 127.282 320.794 127.012 320.794 126.634V126.454C320.794 126.076 321.01 125.806 321.496 125.806C321.982 125.806 322.198 126.076 322.198 126.454V126.634C322.198 127.012 321.982 127.282 321.496 127.282ZM320.992 139V129.784H322.018V139H320.992ZM328.789 139H326.953C326.215 139 325.819 138.55 325.819 137.866V130.684H324.217V129.784H325.261C325.765 129.784 325.909 129.604 325.909 129.082V127.21H326.845V129.784H328.933V130.684H326.845V138.1H328.789V139ZM338.779 139H337.735C336.943 139 336.619 138.55 336.565 137.866V137.542H336.475C336.061 138.568 335.125 139.216 333.685 139.216C331.759 139.216 330.643 138.208 330.643 136.498C330.643 134.86 331.723 133.834 334.387 133.834H336.511V132.754C336.511 131.242 335.719 130.468 334.153 130.468C332.929 130.468 332.137 131.008 331.633 131.962L330.985 131.422C331.489 130.36 332.515 129.568 334.189 129.568C336.331 129.568 337.537 130.702 337.537 132.646V138.1H338.779V139ZM333.829 138.334C335.323 138.334 336.511 137.56 336.511 136.318V134.608H334.351C332.515 134.608 331.723 135.238 331.723 136.264V136.696C331.723 137.758 332.569 138.334 333.829 138.334ZM343.339 139H342.025C341.287 139 340.891 138.55 340.891 137.884V125.68H341.917V138.1H343.339V139ZM353.185 139.216C350.719 139.216 349.153 137.416 349.153 134.392C349.153 131.368 350.719 129.568 353.167 129.568C355.525 129.568 357.055 131.404 357.055 134.104V134.59H350.233V135.04C350.233 136.966 351.349 138.316 353.239 138.316C354.553 138.316 355.525 137.668 356.029 136.462L356.785 136.966C356.209 138.316 354.931 139.216 353.185 139.216ZM353.167 130.432C351.385 130.432 350.233 131.764 350.233 133.708V133.798H355.939V133.654C355.939 131.71 354.823 130.432 353.167 130.432ZM358.265 139L361.685 134.356L358.391 129.784H359.597L362.225 133.546H362.279L364.961 129.784H366.113L362.837 134.284L366.203 139H364.997L362.279 135.112H362.243L359.417 139H358.265ZM368.348 142.6V129.784H369.374V131.26H369.428C369.878 130.234 370.832 129.568 372.236 129.568C374.594 129.568 376.034 131.35 376.034 134.392C376.034 137.434 374.594 139.216 372.236 139.216C370.832 139.216 369.932 138.55 369.428 137.524H369.374V142.6H368.348ZM372.002 138.298C373.838 138.298 374.936 137.02 374.936 135.04V133.744C374.936 131.764 373.838 130.486 372.002 130.486C370.58 130.486 369.374 131.332 369.374 132.538V136.192C369.374 137.488 370.58 138.298 372.002 138.298ZM381.978 139.216C379.512 139.216 377.946 137.416 377.946 134.392C377.946 131.368 379.512 129.568 381.96 129.568C384.318 129.568 385.848 131.404 385.848 134.104V134.59H379.026V135.04C379.026 136.966 380.142 138.316 382.032 138.316C383.346 138.316 384.318 137.668 384.822 136.462L385.578 136.966C385.002 138.316 383.724 139.216 381.978 139.216ZM381.96 130.432C380.178 130.432 379.026 131.764 379.026 133.708V133.798H384.732V133.654C384.732 131.71 383.616 130.432 381.96 130.432ZM389.483 139H388.457V129.784H389.483V131.44H389.555C389.915 130.576 390.725 129.784 392.309 129.784H392.921V130.792H392.111C390.581 130.792 389.483 131.512 389.483 132.7V139ZM395.395 127.282C394.909 127.282 394.693 127.012 394.693 126.634V126.454C394.693 126.076 394.909 125.806 395.395 125.806C395.881 125.806 396.097 126.076 396.097 126.454V126.634C396.097 127.012 395.881 127.282 395.395 127.282ZM394.891 139V129.784H395.917V139H394.891ZM402.562 139.216C400.096 139.216 398.53 137.416 398.53 134.392C398.53 131.368 400.096 129.568 402.544 129.568C404.902 129.568 406.432 131.404 406.432 134.104V134.59H399.61V135.04C399.61 136.966 400.726 138.316 402.616 138.316C403.93 138.316 404.902 137.668 405.406 136.462L406.162 136.966C405.586 138.316 404.308 139.216 402.562 139.216ZM402.544 130.432C400.762 130.432 399.61 131.764 399.61 133.708V133.798H405.316V133.654C405.316 131.71 404.2 130.432 402.544 130.432ZM410.067 139H409.041V129.784H410.067V131.242H410.121C410.535 130.288 411.363 129.568 412.839 129.568C414.801 129.568 415.953 130.828 415.953 133.078V139H414.927V133.258C414.927 131.386 414.099 130.486 412.569 130.486C411.273 130.486 410.067 131.152 410.067 132.52V139ZM422.424 139.216C419.904 139.216 418.446 137.434 418.446 134.392C418.446 131.35 419.904 129.568 422.424 129.568C424.116 129.568 425.16 130.396 425.7 131.602L424.836 132.034C424.404 131.044 423.63 130.486 422.424 130.486C420.552 130.486 419.544 131.8 419.544 133.744V135.04C419.544 136.984 420.552 138.298 422.424 138.298C423.684 138.298 424.548 137.722 425.07 136.696L425.826 137.2C425.232 138.424 424.116 139.216 422.424 139.216ZM431.267 139.216C428.801 139.216 427.235 137.416 427.235 134.392C427.235 131.368 428.801 129.568 431.249 129.568C433.607 129.568 435.137 131.404 435.137 134.104V134.59H428.315V135.04C428.315 136.966 429.431 138.316 431.321 138.316C432.635 138.316 433.607 137.668 434.111 136.462L434.867 136.966C434.291 138.316 433.013 139.216 431.267 139.216ZM431.249 130.432C429.467 130.432 428.315 131.764 428.315 133.708V133.798H434.021V133.654C434.021 131.71 432.905 130.432 431.249 130.432ZM440.356 139.216C438.754 139.216 437.638 138.586 436.81 137.452L437.566 136.858C438.322 137.848 439.204 138.334 440.428 138.334C441.832 138.334 442.642 137.704 442.642 136.588C442.642 135.616 442.084 135.058 440.752 134.86L439.996 134.734C438.322 134.482 437.17 133.816 437.17 132.16C437.17 130.432 438.52 129.568 440.302 129.568C441.832 129.568 442.768 130.162 443.452 130.99L442.768 131.62C442.282 131.044 441.526 130.45 440.248 130.45C438.934 130.45 438.16 131.062 438.16 132.106C438.16 133.168 438.826 133.582 440.14 133.798L440.878 133.906C442.75 134.194 443.632 135.004 443.632 136.48C443.632 138.19 442.39 139.216 440.356 139.216ZM446.903 139.162C446.309 139.162 446.039 138.838 446.039 138.352V138.154C446.039 137.668 446.309 137.344 446.903 137.344C447.479 137.344 447.767 137.668 447.767 138.154V138.352C447.767 138.838 447.479 139.162 446.903 139.162Z" fill="white"/>
<path opacity="0.01" d="M27 1H1V31H27V1Z" fill="#D8D8D8" stroke="#979797"/>
<path d="M554 1H528V31H554V1Z" fill="#D8D8D8" fill-opacity="0.01"/>
</svg>
